<?xml version="1.0" standalone="no"?>
<!DOCTYPE svg PUBLIC "-//W3C//DTD SVG 1.1//EN" "http://www.w3.org/Graphics/SVG/1.1/DTD/svg11.dtd" >
<svg>
<metadata>
Created by FontForge 20090622 at Mon May 25 17:26:06 2015
 By deploy user
Copyright (c) 1992 Adobe Systems Incorporated. All Rights Reserved.Grotesque is a trademark of The Monotype Corporation plc registered in the U.S. Patent &#38; TM Office.
</metadata>
<defs>
<font id="GrotesqueMT-ExtraCondensed" horiz-adv-x="313" >
  <font-face 
    font-family="Grotesque MT ExCn"
    font-weight="400"
    font-stretch="extra-condensed"
    units-per-em="1000"
    panose-1="2 11 5 8 0 0 0 0 0 0"
    ascent="750"
    descent="-250"
    x-height="518"
    cap-height="732"
    bbox="-154 -250 1008 952"
    underline-thickness="50"
    underline-position="-50"
    unicode-range="U+0020-U+FB02"
  />
<missing-glyph horiz-adv-x="175" 
 />
    <glyph glyph-name=".notdef" horiz-adv-x="175" 
 />
    <glyph glyph-name=".null" horiz-adv-x="0" 
 />
    <glyph glyph-name="nonmarkingreturn" horiz-adv-x="333" 
 />
    <glyph glyph-name="space" unicode=" " horiz-adv-x="175" 
 />
    <glyph glyph-name="space" unicode="&#xa0;" horiz-adv-x="175" 
 />
    <glyph glyph-name="exclam" unicode="!" horiz-adv-x="167" 
d="M43 548v184h81v-181l-21 -367h-38zM44 0v111h81v-111h-81z" />
    <glyph glyph-name="quotedbl" unicode="&#x22;" horiz-adv-x="302" 
d="M49 617v115h73v-116l-15 -132h-43zM180 616v116h73v-116l-15 -132h-43z" />
    <glyph glyph-name="numbersign" unicode="#" horiz-adv-x="668" 
d="M44 437v60h159l42 198h59l-42 -198h206l41 198h60l-42 -198h97v-60h-109l-37 -181h146v-60h-158l-41 -196h-60l42 196h-207l-41 -196h-60l41 196h-96v60h109l38 181h-147zM456 437h-206l-38 -180h207z" />
    <glyph glyph-name="dollar" unicode="$" 
d="M136 447v187q-40 -22 -40 -76q0 -64 40 -111zM180 272v-202q41 18 41 77q0 70 -41 125zM136 707v34h44v-35q33 -11 53 -27q56 -49 56 -147v-51h-74v41q0 51 -7.5 74t-27.5 33v-232q37 -38 56.5 -62.5t37.5 -71t18 -102.5q0 -75 -26.5 -113.5t-85.5 -51.5v-78h-44v78
q-21 4 -35 9.5t-35 22t-32 51t-11 85.5v58h75v-45q0 -45 8.5 -68.5t29.5 -36.5v253q-44 46 -63 69t-35 62t-16 86q0 140 114 165z" />
    <glyph glyph-name="percent" unicode="%" horiz-adv-x="594" 
d="M421 224v-118q0 -83 44 -83q39 0 39 83v118q0 42 -9.5 60t-32.5 18q-41 0 -41 -78zM355 97v133q0 58 28 89.5t80 31.5q50 0 78.5 -32t28.5 -89v-133q0 -60 -27 -92.5t-78 -32.5q-53 0 -81.5 32.5t-28.5 92.5zM91 613v-118q0 -83 44 -83q39 0 39 83v118q0 42 -9.5 60
t-32.5 18q-41 0 -41 -78zM25 486v133q0 58 28 89.5t80 31.5q50 0 78.5 -32t28.5 -89v-133q0 -60 -27 -92.5t-78 -32.5q-53 0 -81.5 32.5t-28.5 92.5zM95 -27l371 769h35l-371 -769h-35z" />
    <glyph glyph-name="ampersand" unicode="&#x26;" horiz-adv-x="448" 
d="M222 491q56 29 56 111q0 71 -36 71q-33 0 -33 -63q0 -54 13 -119zM171 375q-34 -23 -47 -48t-13 -65q0 -65 29 -127.5t59 -62.5q13 0 28.5 14.5t25.5 35.5q-45 112 -82 253zM411 64l-10 -64q-16 -4 -26 -4q-56 0 -89 60q-45 -60 -97 -60q-61 0 -106 75t-45 177
q0 115 116 193q-1 7 -3 17.5l-4 20.5q-12 59 -12 99q0 74 30 117t81 43q100 0 100 -140q0 -38 -10 -68t-29.5 -51t-33 -32t-34.5 -24q18 -67 62 -212q37 85 53 204h59q-14 -103 -29.5 -159.5t-48.5 -123.5q12 -33 27 -49.5t25 -18t24 -0.5z" />
    <glyph glyph-name="quotesingle" unicode="'" horiz-adv-x="167" 
d="M47 616v116h73v-117l-13 -130h-45z" />
    <glyph glyph-name="parenleft" unicode="(" horiz-adv-x="240" 
d="M222 -146l-31 -33q-85 100 -123.5 211t-38.5 248t38.5 248t123.5 211l31 -33q-62 -80 -85.5 -182.5t-23.5 -243.5t23.5 -243.5t85.5 -182.5z" />
    <glyph glyph-name="parenright" unicode=")" horiz-adv-x="240" 
d="M18 706l31 33q85 -100 123.5 -211t38.5 -248t-38.5 -248t-123.5 -211l-31 33q62 80 85.5 182.5t23.5 243.5t-23.5 243.5t-85.5 182.5z" />
    <glyph glyph-name="asterisk" unicode="*" horiz-adv-x="344" 
d="M18 594l19 63l56 -20q39 -30 71 -47q-6 45 -23 82v60h65v-59q-14 -34 -25 -83q33 16 70 47l56 19l19 -62l-53 -17q-51 2 -88 -3q20 -19 69 -54l34 -45l-52 -37l-35 47q-9 44 -29 80q-17 -38 -26 -80l-34 -49l-53 39l34 46q36 23 67 55q-41 4 -88 1z" />
    <glyph glyph-name="plus" unicode="+" horiz-adv-x="667" 
d="M68 291v64h233v234h64v-234h234v-64h-234v-232h-64v232h-233z" />
    <glyph glyph-name="comma" unicode="," horiz-adv-x="167" 
d="M44 0v113h81v-129l-79 -122l-27 23l75 115h-50z" />
    <glyph glyph-name="hyphen" unicode="-" horiz-adv-x="240" 
d="M23 219v79h195v-79h-195z" />
    <glyph glyph-name="hyphen" unicode="&#xad;" horiz-adv-x="240" 
d="M23 219v79h195v-79h-195z" />
    <glyph glyph-name="period" unicode="." horiz-adv-x="167" 
d="M43 0v113h82v-113h-82z" />
    <glyph glyph-name="slash" unicode="/" horiz-adv-x="281" 
d="M6 -171l171 902h67l-170 -902h-68z" />
    <glyph glyph-name="zero" unicode="0" 
d="M114 593v-449q0 -75 46 -75q40 0 40 76v452q0 69 -43 69t-43 -73zM31 164v405q0 171 127 171q61 0 93 -43t32 -122v-410q0 -83 -31 -127t-91 -44q-130 0 -130 170z" />
    <glyph glyph-name="one" unicode="1" 
d="M66 611v59q37 1 59 19t27 49h57v-738h-84v611h-59z" />
    <glyph glyph-name="two" unicode="2" 
d="M114 467h-76v126q0 146 114 146q65 0 96 -41.5t31 -129.5q0 -90 -15.5 -134t-61.5 -114q-54 -81 -71.5 -125.5t-18.5 -95.5v-23h91v123h73v-199h-240v65q0 129 66 237q61 98 77 140t16 121q0 38 -2 57t-11.5 33.5t-29.5 14.5q-38 0 -38 -70v-131z" />
    <glyph glyph-name="three" unicode="3" 
d="M113 506h-78v68q0 167 118 167q36 0 61.5 -14t38 -31.5t19.5 -46.5t8 -46.5t1 -42.5q0 -92 -12 -123t-55 -50q42 -17 57 -44.5t15 -88.5v-88q0 -90 -32 -131t-99 -41q-66 0 -96.5 39t-30.5 127v104h79v-91q0 -61 11.5 -83.5t39.5 -22.5q25 0 35.5 22.5t10.5 70.5v94
q0 55 -17 75.5t-62 20.5h-28v76h21q45 0 62.5 14.5t17.5 51.5v108q0 67 -44 67q-41 0 -41 -77v-84z" />
    <glyph glyph-name="four" unicode="4" 
d="M168 221v365l-101 -365h101zM21 268l142 463h84v-510h54v-66h-54v-155h-80v155h-146v113z" />
    <glyph glyph-name="five" unicode="5" 
d="M37 238h77v-101q0 -68 44 -68q22 0 31 20t9 68v203q0 73 -43 73q-14 0 -23 -7t-12.5 -25t-4 -30.5t-1.5 -42.5v-24h-74v428h219v-78h-143v-170q28 28 65 28q45 0 72 -34.5t27 -92.5v-230q0 -83 -29 -121t-92 -38q-59 0 -90.5 36t-31.5 104v102z" />
    <glyph glyph-name="six" unicode="6" 
d="M197 132v159q0 55 -38 55q-18 0 -28 -16.5t-10 -42.5v-158q0 -63 39 -63q37 0 37 66zM270 496h-78v113q0 57 -38 57q-34 0 -34 -58v-211q29 32 65 32q95 0 95 -164v-112q0 -75 -31.5 -117.5t-87.5 -42.5q-59 0 -91.5 42.5t-32.5 119.5v399q0 98 27.5 142t86.5 44
q119 0 119 -146v-98z" />
    <glyph glyph-name="seven" unicode="7" 
d="M36 515v217h248v-60q0 -133 -49 -304l-8 -27.5l-5 -17.5t-3 -11q-30 -114 -30 -250v-62h-84v54q0 155 66 356l6 18q22 68 30 111.5t10 108.5h-113v-133h-68z" />
    <glyph glyph-name="eight" unicode="8" 
d="M117 580v-50q0 -53 7 -73t31 -20q25 0 31.5 19.5t6.5 75.5v46q0 49 -8.5 68.5t-30.5 19.5q-21 0 -29 -18.5t-8 -67.5zM116 262v-124q0 -72 42 -72q39 0 39 72v123q0 43 -9.5 62.5t-31.5 19.5q-40 0 -40 -81zM107 390q-41 21 -54 53t-13 116q0 30 1 47.5t6.5 46t16.5 45
t33 29t53 12.5q34 0 57.5 -11.5t35.5 -27.5t19 -43t8 -46.5t1 -50.5q0 -84 -11 -115t-53 -53q31 -14 46 -32t21.5 -53t6.5 -104q0 -38 -1 -59.5t-7.5 -54t-18.5 -50.5t-36.5 -31.5t-59.5 -13.5q-36 0 -61 14t-37.5 32t-19 50.5t-7.5 53t-1 56.5q0 101 14.5 136t60.5 54z" />
    <glyph glyph-name="nine" unicode="9" 
d="M116 602v-159q0 -55 38 -55q18 0 28 16.5t10 42.5v158q0 63 -39 63q-37 0 -37 -66zM43 238h78v-113q0 -57 38 -57q34 0 34 58v211q-29 -32 -65 -32q-95 0 -95 164v112q0 75 31.5 117.5t87.5 42.5q59 0 91.5 -42.5t32.5 -119.5v-399q0 -98 -27.5 -142t-86.5 -44
q-119 0 -119 146v98z" />
    <glyph glyph-name="colon" unicode=":" horiz-adv-x="167" 
d="M43 408v110h81v-110h-81zM43 0v113h81v-113h-81z" />
    <glyph glyph-name="semicolon" unicode=";" horiz-adv-x="167" 
d="M43 407v111h81v-111h-81zM44 0v113h80v-130l-80 -121l-25 23l74 115h-49z" />
    <glyph glyph-name="less" unicode="&#x3c;" horiz-adv-x="667" 
d="M598 141v-69l-529 223v58l529 223v-70l-443 -182z" />
    <glyph glyph-name="equal" unicode="=" horiz-adv-x="667" 
d="M69 407v64h530v-64h-530zM69 179v64h530v-64h-530z" />
    <glyph glyph-name="greater" unicode="&#x3e;" horiz-adv-x="667" 
d="M69 506v70l529 -224v-57l-529 -223v69l443 182z" />
    <glyph glyph-name="question" unicode="?" horiz-adv-x="281" 
d="M92 501h-73v52q0 99 27.5 142t90.5 43q35 0 59.5 -14t36.5 -32t19 -47t8 -47.5t1 -45.5q0 -51 -9 -80.5t-37 -73.5l-16 -26q-34 -54 -34 -142v-46h-66v67q0 85 42 158q13 23 19.5 37.5t13.5 48.5t7 79q0 55 -10 78t-35 23q-16 0 -25.5 -8t-13 -26t-4.5 -31.5t-1 -38.5
v-70zM92 0v111h81v-111h-81z" />
    <glyph glyph-name="at" unicode="@" horiz-adv-x="800" 
d="M541 414l17 81h61l-83 -392l-4 -22q-2 -16 -2 -17q0 -20 24 -20q68 0 129.5 88.5t61.5 186.5q0 81 -29 149t-82 109q-82 64 -220 64q-163 0 -269 -110.5t-106 -280.5q0 -169 105.5 -274.5t275.5 -105.5q142 0 238 63q50 34 94 90h50q-30 -45 -51.5 -67.5t-59.5 -48.5
q-112 -76 -278 -76q-184 0 -299 117.5t-115 305.5q0 58 13.5 115.5t46 114.5t80.5 100t122.5 70t166.5 27q162 0 260 -99.5t98 -263.5q0 -121 -78.5 -219.5t-175.5 -98.5q-57 0 -57 54q0 15 4 36q-77 -90 -171 -90q-71 0 -118 60t-47 150q0 118 74.5 207.5t172.5 89.5
q99 0 151 -93zM518 325q0 61 -35 100.5t-88 39.5q-48 0 -87 -28.5t-60 -71t-32 -84.5t-11 -75q0 -70 35 -115t88 -45q70 0 130 87.5t60 191.5z" />
    <glyph glyph-name="A" unicode="A" horiz-adv-x="344" 
d="M213 270l-41 391l-42 -391h83zM21 0l95 732h111l96 -732h-78l-23 197h-100l-23 -197h-78z" />
    <glyph glyph-name="B" unicode="B" horiz-adv-x="344" 
d="M133 654v-242l36 -1q49 0 49 76v77q0 53 -11 71.5t-43 18.5h-31zM133 334v-256h45q28 0 38.5 18.5t10.5 68.5v60q0 66 -12 87.5t-49 21.5h-33zM49 0v732h108q81 0 113 -42t32 -149q0 -84 -13.5 -115.5t-47.5 -50.5q42 -22 57.5 -56.5t15.5 -119.5q0 -37 -1 -59t-8 -52
t-19.5 -46.5t-37.5 -29t-60 -12.5h-139z" />
    <glyph glyph-name="C" unicode="C" horiz-adv-x="344" 
d="M224 306h83v-153q0 -72 -35.5 -116t-96.5 -44q-63 0 -98.5 43t-35.5 116v412q0 86 32.5 131.5t93.5 45.5q135 0 135 -182v-99h-83v96q0 26 -1 41t-5.5 32.5t-14 25.5t-25.5 8q-17 0 -27.5 -9t-14.5 -30.5t-5 -38t-1 -50.5v-390q0 -34 13.5 -53.5t37.5 -19.5q48 0 48 73
v161z" />
    <glyph glyph-name="D" unicode="D" horiz-adv-x="344" 
d="M124 655v-577h39q34 0 46 18.5t12 72.5v388q0 57 -12.5 77.5t-46.5 20.5h-38zM41 0v732h124q76 0 108.5 -44t32.5 -147v-356q0 -100 -32 -142.5t-106 -42.5h-127z" />
    <glyph glyph-name="E" unicode="E" 
d="M48 0v732h236v-78h-152v-240h131v-76h-131v-260h163v-78h-247z" />
    <glyph glyph-name="F" unicode="F" 
d="M57 0v732h242v-77h-159v-240h125v-77h-125v-338h-83z" />
    <glyph glyph-name="G" unicode="G" horiz-adv-x="344" 
d="M162 373h145v-226q0 -70 -34.5 -111.5t-96.5 -41.5q-65 0 -101 41.5t-36 114.5v434q0 73 35 115t97 42q63 0 98 -42t35 -120v-142h-83v143q0 83 -48 83q-50 0 -50 -81v-420q0 -89 53 -89q27 0 37.5 21t10.5 70v131h-62v78z" />
    <glyph glyph-name="H" unicode="H" horiz-adv-x="344" 
d="M45 0v732h83v-318h89v318h83v-732h-83v337h-89v-337h-83z" />
    <glyph glyph-name="I" unicode="I" horiz-adv-x="167" 
d="M42 0v732h84v-732h-84z" />
    <glyph glyph-name="J" unicode="J" 
d="M28 308h83v-179q0 -57 37 -57t37 54v606h83v-609q0 -60 -32.5 -94.5t-90.5 -34.5q-54 0 -85.5 37.5t-31.5 101.5v175z" />
    <glyph glyph-name="K" unicode="K" horiz-adv-x="344" 
d="M53 0v732h84v-299l102 299h82l-114 -327l123 -405h-84l-109 363v-363h-84z" />
    <glyph glyph-name="L" unicode="L" 
d="M56 0v732h83v-654h152v-78h-235z" />
    <glyph glyph-name="M" unicode="M" horiz-adv-x="417" 
d="M42 1v731h105l60 -406h5l60 406h103v-732h-76v196q0 40 17 422h-5l-95 -617h-13l-94 618h-4l2 -59q11 -231 11 -315v-244h-76z" />
    <glyph glyph-name="N" unicode="N" horiz-adv-x="344" 
d="M45 0v732h71l108 -453h4v453h71v-732h-69l-110 454h-3v-454h-72z" />
    <glyph glyph-name="O" unicode="O" horiz-adv-x="344" 
d="M223 157v417q0 49 -11.5 69t-39.5 20q-27 0 -38.5 -21t-11.5 -70v-404q0 -53 12 -74.5t40 -21.5q49 0 49 85zM307 571v-404q0 -83 -35 -128t-98 -45q-66 0 -101 45.5t-35 127.5v403q0 80 34.5 125.5t100.5 45.5t100 -44.5t34 -125.5z" />
    <glyph glyph-name="P" unicode="P" horiz-adv-x="344" 
d="M169 653h-34v-246h29q38 0 51.5 19.5t13.5 75.5v67q0 46 -14 65t-46 19zM52 0v732h105q96 0 127.5 -46.5t31.5 -159.5q0 -47 -4 -77.5t-17.5 -60t-42 -44t-72.5 -14.5h-45v-330h-83z" />
    <glyph glyph-name="Q" unicode="Q" horiz-adv-x="344" 
d="M223 156v425q0 44 -11.5 63t-39.5 19q-27 0 -38.5 -21t-11.5 -70v-404q0 -53 12 -74.5t40 -21.5q49 0 49 84zM38 175v387q0 179 135 179q134 0 134 -178v-401q0 -145 -110 -168l67 -164h-96l-25 166q-23 7 -38 15.5t-32.5 27.5t-26 53t-8.5 83z" />
    <glyph glyph-name="R" unicode="R" horiz-adv-x="344" 
d="M129 653v-254h22q45 0 59 21t14 89q0 95 -11.5 119.5t-55.5 24.5h-28zM45 0v732h130q135 0 135 -171v-74q0 -57 -14 -89t-49 -54l85 -344h-82l-80 322h-41v-322h-84z" />
    <glyph glyph-name="S" unicode="S" horiz-adv-x="344" 
d="M38 265h79v-84q0 -111 62 -111q53 0 53 100q0 56 -16 86t-60 76l-53 58.5t-34.5 48t-24.5 59.5t-6 72q0 82 34.5 126t98.5 44q62 0 95 -44t33 -127v-85h-77v56q0 69 -11 95.5t-40 26.5q-27 0 -39 -19.5t-12 -62.5q0 -56 15 -87t73 -90l21 -22q50 -53 67.5 -95.5
t17.5 -109.5q0 -75 -31.5 -129t-101.5 -54q-143 0 -143 188v84z" />
    <glyph glyph-name="T" unicode="T" horiz-adv-x="344" 
d="M15 656v76h314v-76h-116v-656h-83v656h-115z" />
    <glyph glyph-name="U" unicode="U" horiz-adv-x="344" 
d="M300 732v-581q0 -85 -34 -120q-40 -38 -93 -38q-56 0 -92 36q-37 37 -37 126v577h83v-583q0 -41 11 -58.5t36 -17.5q43 0 43 75v584h83z" />
    <glyph glyph-name="V" unicode="V" horiz-adv-x="344" 
d="M122 0l-101 732h77l74 -564l73 564h78l-104 -732h-97z" />
    <glyph glyph-name="W" unicode="W" horiz-adv-x="510" 
d="M93 0l-75 732h79l45 -570l65 570h98l65 -571l45 571h78l-74 -732h-97l-67 562l-64 -562h-98z" />
    <glyph glyph-name="X" unicode="X" horiz-adv-x="344" 
d="M131 390l-100 342h84l58 -219l56 219h84l-98 -344l112 -388h-83l-71 265l-71 -265h-84z" />
    <glyph glyph-name="Y" unicode="Y" horiz-adv-x="344" 
d="M133 309l-114 423h84l71 -303l68 303h83l-109 -421v-311h-83v309z" />
    <glyph glyph-name="Z" unicode="Z" horiz-adv-x="281" 
d="M38 656v76h215v-74l-144 -579h151v-79h-236v73l145 583h-131z" />
    <glyph glyph-name="bracketleft" unicode="[" horiz-adv-x="281" 
d="M148 665v-770h113v-67h-188v904h188v-67h-113z" />
    <glyph glyph-name="backslash" unicode="\" horiz-adv-x="281" 
d="M208 -170l-169 902h67l170 -902h-68z" />
    <glyph glyph-name="bracketright" unicode="]" horiz-adv-x="281" 
d="M20 665v67h188v-904h-188v67h113v770h-113z" />
    <glyph glyph-name="asciicircum" unicode="^" horiz-adv-x="660" 
d="M112 478l218 262l219 -262l-32 -26l-187 225l-188 -225z" />
    <glyph glyph-name="underscore" unicode="_" horiz-adv-x="500" 
d="M-10 -125v50h520v-50h-520z" />
    <glyph glyph-name="grave" unicode="`" horiz-adv-x="333" 
d="M54 714h98l62 -129h-50z" />
    <glyph glyph-name="a" unicode="a" 
d="M187 149v123l-22 -10q-23 -10 -33 -17.5t-18 -33.5t-8 -73q0 -44 6 -58.5t24 -14.5q22 0 36.5 24t14.5 60zM296 61v-60q-15 -5 -38 -5q-35 0 -51 16t-20 54q-21 -40 -40 -55t-48 -15q-39 0 -55 31t-16 109q0 86 23 124t89 59q30 11 47 20v74q0 43 -35 43
q-16 0 -25.5 -13.5t-9.5 -35.5v-42h-66v25q0 70 25.5 101.5t82.5 31.5q47 0 75 -28.5t28 -77.5v-322q0 -19 7 -26.5t27 -7.5z" />
    <glyph glyph-name="b" unicode="b" 
d="M44 0v732h76v-270q20 35 37.5 48.5t42.5 13.5q13 0 23 -3.5t22.5 -14.5t19.5 -38.5t7 -70.5v-245q0 -156 -83 -156q-57 0 -86 81l-24 -77h-35zM119 348v-216q0 -35 12 -54.5t33 -19.5q19 0 26.5 17.5t6.5 67.5v271q0 46 -31 46q-47 0 -47 -112z" />
    <glyph glyph-name="c" unicode="c" horiz-adv-x="281" 
d="M183 225h73v-84q0 -72 -29 -108.5t-82 -36.5q-57 0 -85.5 34.5t-28.5 109.5v242q0 69 29 105.5t84 36.5q49 0 79 -34t30 -93v-95h-72v95q0 60 -37 60q-38 0 -38 -70v-251q0 -39 9 -55.5t30 -16.5q38 0 38 69v92z" />
    <glyph glyph-name="d" unicode="d" 
d="M196 165v193q0 49 -12.5 76t-35.5 27q-29 0 -29 -60v-292q0 -47 27 -47q22 0 36 28.5t14 74.5zM195 462v270h75v-732h-75v68q-35 -72 -85 -72q-69 0 -69 101v311q0 116 72 116q46 0 82 -62z" />
    <glyph glyph-name="e" unicode="e" 
d="M121 311h81v66q0 79 -43 79q-38 0 -38 -68v-77zM200 198h73v-42q0 -161 -111 -161q-70 0 -94 49.5t-24 157.5v145q0 177 113 177q119 0 119 -185v-92h-156v-79q0 -58 8.5 -81t32.5 -23q22 0 30.5 19t8.5 59v56z" />
    <glyph glyph-name="f" unicode="f" horiz-adv-x="208" 
d="M27 518h43v91q0 129 106 129h59v-64h-30q-33 0 -46.5 -12.5t-13.5 -43.5v-100h48v-56h-48v-462h-75v462h-43v56z" />
    <glyph glyph-name="g" unicode="g" 
d="M195 160v215q0 82 -45 82q-32 0 -32 -70v-257q0 -38 6 -53t22 -15q22 0 35.5 27t13.5 71zM41 93v304q0 60 19.5 92.5t55.5 32.5q45 0 80 -63v59h74v-530q0 -92 -26.5 -130t-90.5 -38q-109 0 -109 114v19h67q0 -19 1 -29t4.5 -23t12.5 -18.5t24 -5.5q42 0 42 66v123
q-37 -68 -87 -68q-67 0 -67 95z" />
    <glyph glyph-name="h" unicode="h" 
d="M41 0v732h75v-281q36 74 90 74q33 0 51.5 -24.5t18.5 -67.5v-433h-75v413q0 27 -6 37.5t-22 10.5q-27 0 -42 -38t-15 -106v-317h-75z" />
    <glyph glyph-name="i" unicode="i" horiz-adv-x="167" 
d="M46 639v93h75v-93h-75zM46 0v518h75v-518h-75z" />
    <glyph glyph-name="j" unicode="j" horiz-adv-x="167" 
d="M44 637v95h75v-95h-75zM120 518v-595q0 -35 -9 -57t-27 -31.5t-34.5 -12.5t-43.5 -3h-26v68h16q49 0 49 51v580h75z" />
    <glyph glyph-name="k" unicode="k" 
d="M55 0v732h75v-450l82 236h71l-90 -234l110 -284h-74l-99 278v-278h-75z" />
    <glyph glyph-name="l" unicode="l" horiz-adv-x="167" 
d="M47 0v732h74v-732h-74z" />
    <glyph glyph-name="m" unicode="m" horiz-adv-x="479" 
d="M122 518v-63q36 67 87 67q27 0 42.5 -15t25.5 -50q36 65 88 65q71 0 71 -107v-415h-75v404q0 61 -30 61q-52 0 -52 -135v-330h-75v419q0 46 -31 46q-24 0 -37.5 -34.5t-13.5 -93.5v-337h-75v518h75z" />
    <glyph glyph-name="n" unicode="n" 
d="M40 0v518h75v-78q34 82 91 82q32 0 51 -24.5t19 -66.5v-431h-75v411q0 48 -30 48q-25 0 -40.5 -37.5t-15.5 -96.5v-325h-75z" />
    <glyph glyph-name="o" unicode="o" 
d="M114 388v-255q0 -71 42 -71q43 0 43 71v255q0 32 -11.5 50.5t-31.5 18.5q-19 0 -30.5 -18.5t-11.5 -50.5zM38 157v208q0 75 30.5 116.5t87.5 41.5q119 0 119 -161v-205q0 -79 -30 -120t-86 -41q-59 0 -90 41.5t-31 119.5z" />
    <glyph glyph-name="p" unicode="p" 
d="M46 -180v698h73v-65q19 38 37.5 53.5t44.5 15.5q35 0 54.5 -35t19.5 -98v-271q0 -122 -71 -122q-25 0 -43 13t-39 45v-234h-76zM121 349v-174q0 -115 47 -115q31 0 31 51v279q0 67 -32 67q-46 0 -46 -108z" />
    <glyph glyph-name="q" unicode="q" 
d="M232 518h37v-698h-77v233q-20 -31 -38 -44t-41 -13q-71 0 -71 113v300q0 50 23.5 82.5t59.5 32.5q55 0 84 -81zM193 148v241q0 31 -11.5 50t-31.5 19q-32 0 -32 -44v-317q0 -37 29 -37q20 0 33 25t13 63z" />
    <glyph glyph-name="r" unicode="r" horiz-adv-x="281" 
d="M51 0v518h73v-64q19 37 37.5 52.5t43.5 15.5q21 0 35 -21t14 -52v-146h-66v101q0 49 -23 49q-38 0 -38 -91v-362h-76z" />
    <glyph glyph-name="s" unicode="s" horiz-adv-x="281" 
d="M24 193h67v-47q0 -86 52 -86q21 0 33.5 16t12.5 44q0 35 -16 62.5t-59 65.5q-25 22 -39.5 38t-28.5 47t-14 65q0 126 108 126q48 0 75.5 -32t27.5 -89v-48h-61v52q0 27 -11.5 43t-30.5 16q-41 0 -41 -54q0 -29 15 -54t54 -59q53 -47 71.5 -85t18.5 -82q0 -62 -31.5 -99
t-85.5 -37t-85.5 38t-31.5 104v55z" />
    <glyph glyph-name="t" unicode="t" horiz-adv-x="208" 
d="M191 462h-53v-355q0 -33 9.5 -41t43.5 -8v-60q-18 -2 -34 -2q-94 0 -94 88v378h-48v56h49v112h75v-112h52v-56z" />
    <glyph glyph-name="u" unicode="u" 
d="M38 88v430h75v-409q0 -55 33 -55q21 0 36.5 29.5t15.5 69.5v365h75v-518h-75v66q-39 -70 -88 -70q-32 0 -52 25.5t-20 66.5z" />
    <glyph glyph-name="v" unicode="v" horiz-adv-x="281" 
d="M105 0l-85 518h75l46 -396l45 396h76l-86 -518h-71z" />
    <glyph glyph-name="w" unicode="w" horiz-adv-x="417" 
d="M95 0l-79 518h71l42 -368l51 368h59l56 -365l38 365h69l-70 -518h-69l-51 357l-50 -357h-67z" />
    <glyph glyph-name="x" unicode="x" horiz-adv-x="281" 
d="M104 264l-85 254h70l50 -175l48 175h71l-83 -249l92 -269h-71l-55 185l-53 -185h-71z" />
    <glyph glyph-name="y" unicode="y" horiz-adv-x="281" 
d="M120 0l-103 518h72l59 -376l38 376h72l-78 -548q-11 -82 -33.5 -116t-90.5 -34h-33v63q38 -2 57.5 7.5t26.5 44.5z" />
    <glyph glyph-name="z" unicode="z" horiz-adv-x="240" 
d="M91 66h134v-66h-210v69l132 383h-123v66h200v-62z" />
    <glyph glyph-name="braceleft" unicode="{" horiz-adv-x="334" 
d="M41 242v76q27 1 45.5 12t28 25.5t14 42.5t5.5 47.5t1 55.5q1 63 2 88.5t8 54t22 48.5q13 20 35.5 30t37.5 11.5t39 1.5h25v-75h-14q-49 0 -63.5 -18.5t-14.5 -79.5v-68q0 -73 -12.5 -117t-30.5 -62t-52 -35q34 -17 52 -35t30.5 -62t12.5 -117v-68q0 -61 14.5 -79.5
t63.5 -18.5h14v-75h-25q-24 0 -39 1.5t-37.5 11.5t-35.5 30q-15 20 -22 48.5t-8 54t-2 88.5q0 36 -1 55.5t-5.5 47.5t-14 42.5t-28 25.5t-45.5 12z" />
    <glyph glyph-name="bar" unicode="|" horiz-adv-x="527" 
d="M231 -250v1000h64v-1000h-64z" />
    <glyph glyph-name="braceright" unicode="}" horiz-adv-x="334" 
d="M293 318v-76q-27 -1 -45.5 -12t-28 -25.5t-14 -42.5t-5.5 -47.5t-1 -55.5q-1 -63 -2 -88.5t-8 -54t-22 -48.5q-13 -20 -35.5 -30t-37.5 -11.5t-39 -1.5h-25v75h14q49 0 63.5 18.5t14.5 79.5v68q0 73 12.5 117t30.5 62t52 35q-34 17 -52 35t-30.5 62t-12.5 117v68
q0 61 -14.5 79.5t-63.5 18.5h-14v75h25q24 0 39 -1.5t37.5 -11.5t35.5 -30q15 -20 22 -48.5t8 -54t2 -88.5q0 -36 1 -55.5t5.5 -47.5t14 -42.5t28 -25.5t45.5 -12z" />
    <glyph glyph-name="asciitilde" unicode="~" horiz-adv-x="656" 
d="M592 413v-71q-74 -62 -139 -62q-31 0 -59 9.5t-96 41.5q-59 28 -91 28q-63 0 -143 -67v70q75 61 143 61q47 0 144 -47q65 -32 100 -32q64 0 141 69z" />
    <glyph glyph-name="exclamdown" unicode="&#xa1;" horiz-adv-x="167" 
d="M44 446v109h77v-109h-77zM46 -172v186l19 358h36l22 -358v-186h-77z" />
    <glyph glyph-name="cent" unicode="&#xa2;" horiz-adv-x="271" 
d="M113 639v93h51v-96q81 -26 81 -127v-88h-71v94q0 60 -39 60q-37 0 -37 -58v-263q0 -74 40 -74q17 0 28 16t11 41v105h73v-87q0 -58 -22.5 -94.5t-62.5 -43.5v-117h-52v117q-48 11 -70 41q-21 32 -21 88v274q0 100 91 119z" />
    <glyph glyph-name="sterling" unicode="&#xa3;" 
d="M17 390h55q-11 94 -11 168q0 86 29.5 133.5t84.5 47.5q49 0 78.5 -41t29.5 -108v-30h-72v27q0 82 -40 82q-35 0 -35 -76q0 -13 3 -55.5l6.5 -90t4.5 -57.5h85v-63h-82q3 -133 -17 -218q16 -10 21 -14q27 -20 40 -20q17 0 24 16t7 54v42h64v-30q0 -79 -22.5 -121.5
t-63.5 -42.5q-42 0 -91 47q-14 -46 -50 -46q-20 0 -33.5 13.5t-13.5 35.5q0 63 67 78q2 78 -7 179l-2 27h-59v63z" />
    <glyph glyph-name="currency" unicode="&#xa4;" horiz-adv-x="684" 
d="M148 562l62 -62q59 44 132 44t134 -44l61 62l43 -44l-61 -62q44 -60 44 -133q0 -70 -44 -132l61 -61l-43 -44l-62 62q-53 -45 -133 -45q-77 0 -132 44l-62 -61l-43 44l62 61q-45 56 -45 132q0 75 45 133l-62 62zM184 323q0 -65 46.5 -111.5t112.5 -46.5q65 0 111.5 46.5
t46.5 111.5q0 66 -46.5 112.5t-111.5 46.5q-66 0 -112.5 -46.5t-46.5 -112.5z" />
    <glyph glyph-name="yen" unicode="&#xa5;" horiz-adv-x="344" 
d="M174 434l68 298h83l-91 -331h92v-52h-110v-91h110v-52h-110v-206h-83v206h-113v52h113v91h-113v52h95l-96 331h84z" />
    <glyph glyph-name="brokenbar" unicode="&#xa6;" horiz-adv-x="527" 
d="M231 -175v350h64v-350h-64zM231 325v350h64v-350h-64z" />
    <glyph glyph-name="section" unicode="&#xa7;" horiz-adv-x="344" 
d="M160 387l-19 25q-38 -37 -38 -77q0 -61 100 -185q36 30 36 77q0 31 -17 65t-62 95zM125 13v-28q0 -55 10 -77.5t35 -22.5q42 0 42 58q0 33 -20.5 74t-70.5 107q-40 52 -62 99t-22 106q0 73 65 137q-28 48 -38 76.5t-10 61.5q0 64 30.5 99.5t85.5 35.5q58 0 90 -40
t32 -112v-42h-73v45q0 85 -45 85q-44 0 -44 -61q0 -34 12.5 -61.5t48.5 -73.5l17 -22q55 -70 77 -118.5t22 -98.5q0 -48 -15.5 -81t-53.5 -64q16 -25 24.5 -40t17 -43t8.5 -58q0 -63 -30.5 -98.5t-84.5 -35.5q-62 0 -91.5 38.5t-29.5 119.5v35h73z" />
    <glyph glyph-name="dieresis" unicode="&#xa8;" horiz-adv-x="333" 
d="M61 591v85h60v-85h-60zM212 591v85h60v-85h-60z" />
    <glyph glyph-name="copyright" unicode="&#xa9;" horiz-adv-x="800" 
d="M562 462l-49 -13q-34 77 -111 77q-60 0 -95 -42t-35 -115q0 -76 35 -121.5t94 -45.5q88 0 118 96l47 -16q-45 -128 -164 -128q-79 0 -133 61t-54 150q0 90 52.5 147.5t133.5 57.5q106 0 161 -108zM773 367q0 -155 -109.5 -264t-263.5 -109t-263.5 109t-109.5 264
q0 154 109.5 263.5t263.5 109.5t263.5 -109.5t109.5 -263.5zM728 367q0 136 -96 232t-232 96t-232 -96t-96 -232t96 -232t232 -96t232 96t96 232z" />
    <glyph glyph-name="ordfeminine" unicode="&#xaa;" horiz-adv-x="198" 
d="M121 504v79q-3 -1 -6 -3t-7 -3q-23 -9 -31 -23.5t-8 -48.5v-23q0 -30 19 -30q14 0 23.5 15t9.5 37zM76 640h-41v24q0 77 66 77q30 0 48 -17t18 -45v-211q0 -19 22 -19v-37q-21 -3 -26 -3q-22 0 -31 10t-11 36q-21 -46 -56 -46q-24 0 -34.5 20.5t-10.5 69.5q0 42 11 66.5
t23.5 32t37.5 15.5q19 6 29 13v41q0 17 -5 24t-18 7q-10 0 -16 -9t-6 -23v-26z" />
    <glyph glyph-name="guillemotleft" unicode="&#xab;" 
d="M18 276l85 202h58l-71 -199l73 -200h-58zM151 277l85 201h58l-70 -200l72 -199h-57z" />
    <glyph glyph-name="logicalnot" unicode="&#xac;" horiz-adv-x="667" 
d="M68 412v64h531v-302h-64v238h-467z" />
    <glyph glyph-name="registered" unicode="&#xae;" horiz-adv-x="800" 
d="M773 367q0 -155 -109.5 -264t-263.5 -109t-263.5 109t-109.5 264t109.5 264t263.5 109t263.5 -109t109.5 -264zM728 367q0 136 -96 232t-232 96t-232 -96t-96 -232t96 -232t232 -96t232 96t96 232zM249 166v393h163q62 0 97.5 -28t35.5 -77q0 -25 -13 -51
q-12 -22 -31.5 -35t-33 -16.5t-38.5 -7.5q37 -14 55 -35q26 -30 75 -143h-59q-51 113 -79 142t-100 29h-22v-171h-50zM299 519v-141h64q68 0 96 16.5t28 56.5q0 38 -25 53t-91 15h-72z" />
    <glyph glyph-name="macron" unicode="&#xaf;" horiz-adv-x="333" 
d="M19 598v54h295v-54h-295z" />
    <glyph glyph-name="macron" unicode="&#x2c9;" horiz-adv-x="333" 
d="M19 598v54h295v-54h-295z" />
    <glyph glyph-name="degree" unicode="&#xb0;" horiz-adv-x="400" 
d="M341 598q0 -57 -41 -97.5t-99 -40.5q-59 0 -100.5 40.5t-41.5 97.5q0 58 41.5 99.5t99.5 41.5t99.5 -41.5t41.5 -99.5zM300 599q0 41 -29.5 70.5t-70.5 29.5t-70.5 -29.5t-29.5 -70.5t29.5 -70t70.5 -29t70.5 29t29.5 70z" />
    <glyph glyph-name="plusminus" unicode="&#xb1;" horiz-adv-x="667" 
d="M68 395v64h233v234h64v-234h234v-64h-234v-234h-64v234h-233zM68 0v64h531v-64h-531z" />
    <glyph glyph-name="twosuperior" unicode="&#xb2;" horiz-adv-x="240" 
d="M85 602h-59q0 18 0.5 30t5.5 34t14.5 35t29 24t46.5 11q46 0 73 -27t27 -73q0 -39 -14.5 -63t-60.5 -62q-35 -27 -47.5 -44t-16.5 -44h95v49h47v-101h-205q4 58 20 90.5t63 75.5q31 29 42 49t11 48q0 51 -35 51q-17 0 -26.5 -12t-9.5 -33v-38z" />
    <glyph glyph-name="threesuperior" unicode="&#xb3;" horiz-adv-x="240" 
d="M78 539v46h11q37 0 50.5 12t13.5 43q0 47 -35 47q-16 0 -26 -13t-10 -34v-10h-57q0 106 94 106q43 0 69.5 -24.5t26.5 -65.5q0 -35 -12 -54t-48 -28q36 -7 50.5 -27.5t14.5 -62.5q0 -50 -27 -78.5t-73 -28.5q-33 0 -54.5 10.5t-31 30.5t-12.5 38t-3 45h59v-20
q0 -54 42 -54q37 0 37 61q0 36 -12.5 48.5t-49.5 12.5h-17z" />
    <glyph glyph-name="acute" unicode="&#xb4;" horiz-adv-x="333" 
d="M119 585l63 129h97l-110 -129h-50z" />
    <glyph glyph-name="mu" unicode="&#xb5;" horiz-adv-x="556" 
d="M408 0v62q-14 -22 -24.5 -34.5t-38.5 -26t-64 -13.5q-35 0 -62 12t-38 23t-26 30v-251h-87v716h87v-251q0 -48 5 -81t17.5 -61.5t37.5 -42.5t62 -14q70 0 96.5 50t26.5 149v251h87v-518h-79z" />
    <glyph glyph-name="mu" unicode="&#x3bc;" horiz-adv-x="556" 
d="M408 0v62q-14 -22 -24.5 -34.5t-38.5 -26t-64 -13.5q-35 0 -62 12t-38 23t-26 30v-251h-87v716h87v-251q0 -48 5 -81t17.5 -61.5t37.5 -42.5t62 -14q70 0 96.5 50t26.5 149v251h87v-518h-79z" />
    <glyph glyph-name="paragraph" unicode="&#xb6;" horiz-adv-x="650" 
d="M458 664h-130v-848h-64v505q-109 0 -164 59t-55 148q0 93 63.5 148.5t170.5 55.5h337v-68h-96v-848h-62v848z" />
    <glyph glyph-name="periodcentered" unicode="&#xb7;" horiz-adv-x="167" 
d="M44 300v111h80v-111h-80z" />
    <glyph glyph-name="periodcentered" unicode="&#x2219;" horiz-adv-x="167" 
d="M44 300v111h80v-111h-80z" />
    <glyph glyph-name="cedilla" unicode="&#xb8;" horiz-adv-x="333" 
d="M110 -71l23 82h50l-17 -60q87 -3 87 -67q0 -40 -39 -61t-111 -21q-18 0 -51 4l4 41q22 -2 40 -2q42 0 66 12t24 33q0 9 -5 17.5t-23 16t-48 5.5z" />
    <glyph glyph-name="onesuperior" unicode="&#xb9;" horiz-adv-x="240" 
d="M41 655v37q33 5 51 13.5t36 29.5h29v-364h-59v284h-57z" />
    <glyph glyph-name="ordmasculine" unicode="&#xba;" horiz-adv-x="198" 
d="M73 664v-175q0 -39 27 -39q26 0 26 48v156q0 46 -27 46q-10 0 -18 -11t-8 -25zM24 514v128q0 46 19.5 72.5t53.5 26.5q37 0 57.5 -24.5t20.5 -68.5v-148q0 -41 -20.5 -66.5t-53.5 -25.5q-77 0 -77 106z" />
    <glyph glyph-name="guillemotright" unicode="&#xbb;" 
d="M90 277l-73 201h59l86 -199l-85 -200h-57zM223 276l-73 202h59l87 -200l-84 -199h-59z" />
    <glyph glyph-name="onequarter" unicode="&#xbc;" horiz-adv-x="573" 
d="M432 93v177l-59 -177h59zM316 95l83 251h72v-254h49v-51h-49v-61h-59v61h-96v54zM51 655v37q33 5 51 13.5t36 29.5h29v-365h-59v285h-57zM64 -27l370 768h34l-370 -768h-34z" />
    <glyph glyph-name="onehalf" unicode="&#xbd;" horiz-adv-x="573" 
d="M374 210h-59q0 18 0.5 30t5.5 34t14.5 35t28.5 24t46 11q46 0 73 -27t27 -73q0 -39 -14.5 -63t-60.5 -61q-34 -27 -46.5 -44.5t-17.5 -43.5h95v48h47v-100h-205q3 58 19.5 90t63.5 76q31 28 42 48t11 48q0 51 -34 51q-17 0 -26.5 -12t-9.5 -33v-38zM46 655v37
q33 5 51 13.5t36 29.5h29v-365h-59v285h-57zM51 -27l370 768h35l-370 -768h-35z" />
    <glyph glyph-name="threequarters" unicode="&#xbe;" horiz-adv-x="573" 
d="M445 93v177l-59 -177h59zM329 95l83 251h72v-254h49v-51h-49v-61h-59v61h-96v54zM96 -27l371 768h34l-370 -768h-35zM103 539v46h11q37 0 50.5 12t13.5 43q0 47 -35 47q-16 0 -26 -13t-10 -34v-10h-57q0 106 94 106q43 0 69.5 -24.5t26.5 -65.5q0 -35 -12 -54t-48 -28
q36 -7 50.5 -27.5t14.5 -62.5q0 -50 -27 -78.5t-73 -28.5q-33 0 -54.5 10.5t-31 30.5t-12.5 38t-3 45h59v-20q0 -54 42 -54q37 0 37 61q0 36 -12.5 48.5t-49.5 12.5h-17z" />
    <glyph glyph-name="questiondown" unicode="&#xbf;" horiz-adv-x="271" 
d="M105 446v109h77v-109h-77zM113 302v70h64v-69q0 -84 -40 -154q-38 -68 -38 -150q0 -67 10 -92t38 -25q40 0 40 79v95h69v-84q0 -153 -115 -153q-120 0 -120 180q0 42 6.5 73t13.5 44.5t21 35.5q51 82 51 150z" />
    <glyph glyph-name="Agrave" unicode="&#xc0;" horiz-adv-x="344" 
d="M213 270l-41 391l-42 -391h83zM21 0l95 732h111l96 -732h-78l-23 197h-100l-23 -197h-78zM60 928h98l62 -129h-50z" />
    <glyph glyph-name="Aacute" unicode="&#xc1;" horiz-adv-x="344" 
d="M213 270l-41 391l-42 -391h83zM21 0l95 732h111l96 -732h-78l-23 197h-100l-23 -197h-78zM125 799l63 129h97l-110 -129h-50z" />
    <glyph glyph-name="Acircumflex" unicode="&#xc2;" horiz-adv-x="344" 
d="M213 270l-41 391l-42 -391h83zM21 0l95 732h111l96 -732h-78l-23 197h-100l-23 -197h-78zM37 799l96 129h80l96 -129h-67l-68 89l-68 -89h-69z" />
    <glyph glyph-name="Atilde" unicode="&#xc3;" horiz-adv-x="344" 
d="M213 270l-41 391l-42 -391h83zM21 0l95 732h111l96 -732h-78l-23 197h-100l-23 -197h-78zM171 887l48 -15q13 -4 19 -4q30 0 35 38h46q-3 -44 -21 -68t-47 -24q-24 0 -84 23q-45 16 -64 16q-17 0 -24.5 -8.5t-9.5 -30.5h-43q6 92 65 92q16 0 80 -19z" />
    <glyph glyph-name="Adieresis" unicode="&#xc4;" horiz-adv-x="344" 
d="M213 270l-41 391l-42 -391h83zM21 0l95 732h111l96 -732h-78l-23 197h-100l-23 -197h-78zM67 805v85h60v-85h-60zM218 805v85h60v-85h-60z" />
    <glyph glyph-name="Aring" unicode="&#xc5;" horiz-adv-x="344" 
d="M213 270l-41 391l-42 -391h83zM21 0l95 732h111l96 -732h-78l-23 197h-100l-23 -197h-78zM260 864q0 -37 -25.5 -62.5t-62.5 -25.5q-36 0 -61.5 25.5t-25.5 62.5t25.5 62.5t61.5 25.5t62 -25.5t26 -62.5zM229 863q0 23 -16.5 39.5t-40.5 16.5q-23 0 -39 -16.5t-16 -39.5
t16 -39t39 -16q24 0 40.5 16t16.5 39z" />
    <glyph glyph-name="AE" unicode="&#xc6;" horiz-adv-x="510" 
d="M241 664h-18l-64 -346h82v346zM22 0l143 732h313v-79h-155v-239h137v-76h-136v-260h168v-78h-250v242h-98l-43 -242h-79z" />
    <glyph glyph-name="Ccedilla" unicode="&#xc7;" horiz-adv-x="344" 
d="M224 306h83v-153q0 -66 -30.5 -109.5t-85.5 -50.5l-13 -44q87 -3 87 -67q0 -40 -39 -61t-111 -21q-18 0 -51 4l4 41q22 -2 40 -2q42 0 66 12t24 33q0 9 -5 17.5t-23 16t-48 5.5l19 70q-46 8 -73 49.5t-27 105.5v412q0 86 32.5 131.5t93.5 45.5q135 0 135 -182v-99h-83v96
q0 26 -1 41t-5.5 32.5t-14 25.5t-25.5 8q-17 0 -27.5 -9t-14.5 -30.5t-5 -38t-1 -50.5v-390q0 -34 13.5 -53.5t37.5 -19.5q48 0 48 73v161z" />
    <glyph glyph-name="Egrave" unicode="&#xc8;" 
d="M48 0v732h236v-78h-152v-240h131v-76h-131v-260h163v-78h-247zM44 928h98l62 -129h-50z" />
    <glyph glyph-name="Eacute" unicode="&#xc9;" 
d="M48 0v732h236v-78h-152v-240h131v-76h-131v-260h163v-78h-247zM109 799l63 129h97l-110 -129h-50z" />
    <glyph glyph-name="Ecircumflex" unicode="&#xca;" 
d="M48 0v732h236v-78h-152v-240h131v-76h-131v-260h163v-78h-247zM21 799l96 129h80l96 -129h-67l-68 89l-68 -89h-69z" />
    <glyph glyph-name="Edieresis" unicode="&#xcb;" 
d="M48 0v732h236v-78h-152v-240h131v-76h-131v-260h163v-78h-247zM51 805v85h60v-85h-60zM202 805v85h60v-85h-60z" />
    <glyph glyph-name="Igrave" unicode="&#xcc;" horiz-adv-x="167" 
d="M42 0v732h84v-732h-84zM-29 928h98l62 -129h-50z" />
    <glyph glyph-name="Iacute" unicode="&#xcd;" horiz-adv-x="167" 
d="M42 0v732h84v-732h-84zM36 799l63 129h97l-110 -129h-50z" />
    <glyph glyph-name="Icircumflex" unicode="&#xce;" horiz-adv-x="167" 
d="M42 0v732h84v-732h-84zM-52 799l96 129h80l96 -129h-67l-68 89l-68 -89h-69z" />
    <glyph glyph-name="Idieresis" unicode="&#xcf;" horiz-adv-x="167" 
d="M42 0v732h84v-732h-84zM-22 805v85h60v-85h-60zM129 805v85h60v-85h-60z" />
    <glyph glyph-name="Eth" unicode="&#xd0;" horiz-adv-x="344" 
d="M124 338v-260h39q34 0 46 18.5t12 72.5v388q0 57 -12.5 77.5t-46.5 20.5h-38v-252h54v-65h-54zM41 0v338h-40v65h40v329h124q76 0 108.5 -44t32.5 -147v-356q0 -100 -32 -142.5t-106 -42.5h-127z" />
    <glyph glyph-name="Ntilde" unicode="&#xd1;" horiz-adv-x="344" 
d="M45 0v732h71l108 -453h4v453h71v-732h-69l-110 454h-3v-454h-72zM171 887l48 -15q13 -4 19 -4q30 0 35 38h46q-3 -44 -21 -68t-47 -24q-24 0 -84 23q-45 16 -64 16q-17 0 -24.5 -8.5t-9.5 -30.5h-43q6 92 65 92q16 0 80 -19z" />
    <glyph glyph-name="Ograve" unicode="&#xd2;" horiz-adv-x="344" 
d="M223 157v417q0 49 -11.5 69t-39.5 20q-27 0 -38.5 -21t-11.5 -70v-404q0 -53 12 -74.5t40 -21.5q49 0 49 85zM307 571v-404q0 -83 -35 -128t-98 -45q-66 0 -101 45.5t-35 127.5v403q0 80 34.5 125.5t100.5 45.5t100 -44.5t34 -125.5zM60 928h98l62 -129h-50z" />
    <glyph glyph-name="Oacute" unicode="&#xd3;" horiz-adv-x="344" 
d="M223 157v417q0 49 -11.5 69t-39.5 20q-27 0 -38.5 -21t-11.5 -70v-404q0 -53 12 -74.5t40 -21.5q49 0 49 85zM307 571v-404q0 -83 -35 -128t-98 -45q-66 0 -101 45.5t-35 127.5v403q0 80 34.5 125.5t100.5 45.5t100 -44.5t34 -125.5zM125 799l63 129h97l-110 -129h-50z
" />
    <glyph glyph-name="Ocircumflex" unicode="&#xd4;" horiz-adv-x="344" 
d="M223 157v417q0 49 -11.5 69t-39.5 20q-27 0 -38.5 -21t-11.5 -70v-404q0 -53 12 -74.5t40 -21.5q49 0 49 85zM307 571v-404q0 -83 -35 -128t-98 -45q-66 0 -101 45.5t-35 127.5v403q0 80 34.5 125.5t100.5 45.5t100 -44.5t34 -125.5zM37 799l96 129h80l96 -129h-67
l-68 89l-68 -89h-69z" />
    <glyph glyph-name="Otilde" unicode="&#xd5;" horiz-adv-x="344" 
d="M223 157v417q0 49 -11.5 69t-39.5 20q-27 0 -38.5 -21t-11.5 -70v-404q0 -53 12 -74.5t40 -21.5q49 0 49 85zM307 571v-404q0 -83 -35 -128t-98 -45q-66 0 -101 45.5t-35 127.5v403q0 80 34.5 125.5t100.5 45.5t100 -44.5t34 -125.5zM171 887l48 -15q13 -4 19 -4
q30 0 35 38h46q-3 -44 -21 -68t-47 -24q-24 0 -84 23q-45 16 -64 16q-17 0 -24.5 -8.5t-9.5 -30.5h-43q6 92 65 92q16 0 80 -19z" />
    <glyph glyph-name="Odieresis" unicode="&#xd6;" horiz-adv-x="344" 
d="M223 157v417q0 49 -11.5 69t-39.5 20q-27 0 -38.5 -21t-11.5 -70v-404q0 -53 12 -74.5t40 -21.5q49 0 49 85zM307 571v-404q0 -83 -35 -128t-98 -45q-66 0 -101 45.5t-35 127.5v403q0 80 34.5 125.5t100.5 45.5t100 -44.5t34 -125.5zM67 805v85h60v-85h-60zM218 805v85
h60v-85h-60z" />
    <glyph glyph-name="multiply" unicode="&#xd7;" horiz-adv-x="668" 
d="M289 323l-199 199l45 46l199 -200l200 200l45 -46l-199 -199l197 -198l-45 -45l-198 198l-198 -198l-45 45z" />
    <glyph glyph-name="Oslash" unicode="&#xd8;" horiz-adv-x="344" 
d="M263 708l10 32h42l-25 -76q17 -38 17 -101v-401q0 -80 -35 -124t-98 -44q-58 0 -91 36l-12 -36h-42l26 80q-17 35 -17 93v395q0 179 135 179q59 0 90 -33zM223 459l-100 -306q1 -44 13 -62.5t38 -18.5q49 0 49 85v302zM122 278l101 307q-1 42 -13 60t-38 18
q-27 0 -38.5 -21t-11.5 -70v-294z" />
    <glyph glyph-name="Ugrave" unicode="&#xd9;" horiz-adv-x="344" 
d="M300 732v-581q0 -85 -34 -120q-40 -38 -93 -38q-56 0 -92 36q-37 37 -37 126v577h83v-583q0 -41 11 -58.5t36 -17.5q43 0 43 75v584h83zM60 928h98l62 -129h-50z" />
    <glyph glyph-name="Uacute" unicode="&#xda;" horiz-adv-x="344" 
d="M300 732v-581q0 -85 -34 -120q-40 -38 -93 -38q-56 0 -92 36q-37 37 -37 126v577h83v-583q0 -41 11 -58.5t36 -17.5q43 0 43 75v584h83zM125 799l63 129h97l-110 -129h-50z" />
    <glyph glyph-name="Ucircumflex" unicode="&#xdb;" horiz-adv-x="344" 
d="M300 732v-581q0 -85 -34 -120q-40 -38 -93 -38q-56 0 -92 36q-37 37 -37 126v577h83v-583q0 -41 11 -58.5t36 -17.5q43 0 43 75v584h83zM37 799l96 129h80l96 -129h-67l-68 89l-68 -89h-69z" />
    <glyph glyph-name="Udieresis" unicode="&#xdc;" horiz-adv-x="344" 
d="M300 732v-581q0 -85 -34 -120q-40 -38 -93 -38q-56 0 -92 36q-37 37 -37 126v577h83v-583q0 -41 11 -58.5t36 -17.5q43 0 43 75v584h83zM67 805v85h60v-85h-60zM218 805v85h60v-85h-60z" />
    <glyph glyph-name="Yacute" unicode="&#xdd;" horiz-adv-x="344" 
d="M133 309l-114 423h84l71 -303l68 303h83l-109 -421v-311h-83v309zM125 799l63 129h97l-110 -129h-50z" />
    <glyph glyph-name="Thorn" unicode="&#xde;" horiz-adv-x="344" 
d="M134 488v-246h25q43 0 56 19t13 79v69q0 41 -14.5 60t-45.5 19h-34zM134 165v-165h-84v732h84v-167h26q88 0 122 -44.5t34 -160.5q0 -104 -30 -149.5t-99 -45.5h-53z" />
    <glyph glyph-name="germandbls" unicode="&#xdf;" 
d="M122 1h-73v603q0 61 29 96.5t78 35.5q114 0 114 -163q0 -62 -13 -89.5t-50 -43.5q67 -28 67 -131v-183q0 -62 -21.5 -96.5t-60.5 -34.5q-12 0 -32 6v61q20 -5 29 6t9 28v226q0 48 -8.5 66t-31.5 23v56q22 3 30 16t8 48v52q0 50 -8.5 70t-30.5 20q-35 0 -35 -60v-612z" />
    <glyph glyph-name="agrave" unicode="&#xe0;" 
d="M187 149v123l-22 -10q-23 -10 -33 -17.5t-18 -33.5t-8 -73q0 -44 6 -58.5t24 -14.5q22 0 36.5 24t14.5 60zM296 61v-60q-15 -5 -38 -5q-35 0 -51 16t-20 54q-21 -40 -40 -55t-48 -15q-39 0 -55 31t-16 109q0 86 23 124t89 59q30 11 47 20v74q0 43 -35 43
q-16 0 -25.5 -13.5t-9.5 -35.5v-42h-66v25q0 70 25.5 101.5t82.5 31.5q47 0 75 -28.5t28 -77.5v-322q0 -19 7 -26.5t27 -7.5zM44 714h98l62 -129h-50z" />
    <glyph glyph-name="aacute" unicode="&#xe1;" 
d="M187 149v123l-22 -10q-23 -10 -33 -17.5t-18 -33.5t-8 -73q0 -44 6 -58.5t24 -14.5q22 0 36.5 24t14.5 60zM296 61v-60q-15 -5 -38 -5q-35 0 -51 16t-20 54q-21 -40 -40 -55t-48 -15q-39 0 -55 31t-16 109q0 86 23 124t89 59q30 11 47 20v74q0 43 -35 43
q-16 0 -25.5 -13.5t-9.5 -35.5v-42h-66v25q0 70 25.5 101.5t82.5 31.5q47 0 75 -28.5t28 -77.5v-322q0 -19 7 -26.5t27 -7.5zM109 585l63 129h97l-110 -129h-50z" />
    <glyph glyph-name="acircumflex" unicode="&#xe2;" 
d="M187 149v123l-22 -10q-23 -10 -33 -17.5t-18 -33.5t-8 -73q0 -44 6 -58.5t24 -14.5q22 0 36.5 24t14.5 60zM296 61v-60q-15 -5 -38 -5q-35 0 -51 16t-20 54q-21 -40 -40 -55t-48 -15q-39 0 -55 31t-16 109q0 86 23 124t89 59q30 11 47 20v74q0 43 -35 43
q-16 0 -25.5 -13.5t-9.5 -35.5v-42h-66v25q0 70 25.5 101.5t82.5 31.5q47 0 75 -28.5t28 -77.5v-322q0 -19 7 -26.5t27 -7.5zM21 585l96 129h80l96 -129h-67l-68 89l-68 -89h-69z" />
    <glyph glyph-name="atilde" unicode="&#xe3;" 
d="M187 149v123l-22 -10q-23 -10 -33 -17.5t-18 -33.5t-8 -73q0 -44 6 -58.5t24 -14.5q22 0 36.5 24t14.5 60zM296 61v-60q-15 -5 -38 -5q-35 0 -51 16t-20 54q-21 -40 -40 -55t-48 -15q-39 0 -55 31t-16 109q0 86 23 124t89 59q30 11 47 20v74q0 43 -35 43
q-16 0 -25.5 -13.5t-9.5 -35.5v-42h-66v25q0 70 25.5 101.5t82.5 31.5q47 0 75 -28.5t28 -77.5v-322q0 -19 7 -26.5t27 -7.5zM155 673l48 -15q13 -4 19 -4q30 0 35 38h46q-3 -44 -21 -68t-47 -24q-24 0 -84 23q-45 16 -64 16q-17 0 -24.5 -8.5t-9.5 -30.5h-43q6 92 65 92
q16 0 80 -19z" />
    <glyph glyph-name="adieresis" unicode="&#xe4;" 
d="M187 149v123l-22 -10q-23 -10 -33 -17.5t-18 -33.5t-8 -73q0 -44 6 -58.5t24 -14.5q22 0 36.5 24t14.5 60zM296 61v-60q-15 -5 -38 -5q-35 0 -51 16t-20 54q-21 -40 -40 -55t-48 -15q-39 0 -55 31t-16 109q0 86 23 124t89 59q30 11 47 20v74q0 43 -35 43
q-16 0 -25.5 -13.5t-9.5 -35.5v-42h-66v25q0 70 25.5 101.5t82.5 31.5q47 0 75 -28.5t28 -77.5v-322q0 -19 7 -26.5t27 -7.5zM51 591v85h60v-85h-60zM202 591v85h60v-85h-60z" />
    <glyph glyph-name="aring" unicode="&#xe5;" 
d="M187 149v123l-22 -10q-23 -10 -33 -17.5t-18 -33.5t-8 -73q0 -44 6 -58.5t24 -14.5q22 0 36.5 24t14.5 60zM296 61v-60q-15 -5 -38 -5q-35 0 -51 16t-20 54q-21 -40 -40 -55t-48 -15q-39 0 -55 31t-16 109q0 86 23 124t89 59q30 11 47 20v74q0 43 -35 43
q-16 0 -25.5 -13.5t-9.5 -35.5v-42h-66v25q0 70 25.5 101.5t82.5 31.5q47 0 75 -28.5t28 -77.5v-322q0 -19 7 -26.5t27 -7.5zM244 650q0 -37 -25.5 -62.5t-62.5 -25.5q-36 0 -61.5 25.5t-25.5 62.5t25.5 62.5t61.5 25.5t62 -25.5t26 -62.5zM213 649q0 23 -16.5 39.5
t-40.5 16.5q-23 0 -39 -16.5t-16 -39.5t16 -39t39 -16q24 0 40.5 16t16.5 39z" />
    <glyph glyph-name="ae" unicode="&#xe6;" horiz-adv-x="448" 
d="M269 315h81v70q0 73 -41 73q-40 0 -40 -55v-88zM54 363v35q0 126 97 126q52 0 77 -42q35 42 80 42q59 0 85.5 -48t26.5 -154v-68h-151v-118q0 -72 43 -72q39 0 39 80v57h69v-34q0 -171 -107 -171q-66 0 -97 55q-37 -55 -88 -55q-88 0 -88 135v47q0 56 25.5 81t84.5 48
q31 12 45 23v73q0 54 -38 54q-41 0 -41 -60v-34h-62zM196 93v179q-12 -9 -28 -17q-30 -16 -41.5 -31.5t-11.5 -41.5v-59q0 -58 36 -58q26 0 45 28z" />
    <glyph glyph-name="ccedilla" unicode="&#xe7;" horiz-adv-x="281" 
d="M183 225h73v-84q0 -134 -99 -145l-13 -47q87 -3 87 -67q0 -40 -39 -61t-111 -21q-18 0 -51 4l4 41q22 -2 40 -2q42 0 66 12t24 33q0 9 -5 17.5t-23 16t-48 5.5l22 73q-79 14 -79 140v242q0 69 29 105.5t84 36.5q49 0 79 -34t30 -93v-95h-72v95q0 60 -37 60q-38 0 -38 -70
v-251q0 -39 9 -55.5t30 -16.5q38 0 38 69v92z" />
    <glyph glyph-name="egrave" unicode="&#xe8;" 
d="M121 311h81v66q0 79 -43 79q-38 0 -38 -68v-77zM200 198h73v-42q0 -161 -111 -161q-70 0 -94 49.5t-24 157.5v145q0 177 113 177q119 0 119 -185v-92h-156v-79q0 -58 8.5 -81t32.5 -23q22 0 30.5 19t8.5 59v56zM44 714h98l62 -129h-50z" />
    <glyph glyph-name="eacute" unicode="&#xe9;" 
d="M121 311h81v66q0 79 -43 79q-38 0 -38 -68v-77zM200 198h73v-42q0 -161 -111 -161q-70 0 -94 49.5t-24 157.5v145q0 177 113 177q119 0 119 -185v-92h-156v-79q0 -58 8.5 -81t32.5 -23q22 0 30.5 19t8.5 59v56zM109 585l63 129h97l-110 -129h-50z" />
    <glyph glyph-name="ecircumflex" unicode="&#xea;" 
d="M121 311h81v66q0 79 -43 79q-38 0 -38 -68v-77zM200 198h73v-42q0 -161 -111 -161q-70 0 -94 49.5t-24 157.5v145q0 177 113 177q119 0 119 -185v-92h-156v-79q0 -58 8.5 -81t32.5 -23q22 0 30.5 19t8.5 59v56zM21 585l96 129h80l96 -129h-67l-68 89l-68 -89h-69z" />
    <glyph glyph-name="edieresis" unicode="&#xeb;" 
d="M121 311h81v66q0 79 -43 79q-38 0 -38 -68v-77zM200 198h73v-42q0 -161 -111 -161q-70 0 -94 49.5t-24 157.5v145q0 177 113 177q119 0 119 -185v-92h-156v-79q0 -58 8.5 -81t32.5 -23q22 0 30.5 19t8.5 59v56zM51 591v85h60v-85h-60zM202 591v85h60v-85h-60z" />
    <glyph glyph-name="igrave" unicode="&#xec;" horiz-adv-x="167" 
d="M46 0v518h75v-518h-75zM-29 714h98l62 -129h-50z" />
    <glyph glyph-name="iacute" unicode="&#xed;" horiz-adv-x="167" 
d="M46 0v518h75v-518h-75zM36 585l63 129h97l-110 -129h-50z" />
    <glyph glyph-name="icircumflex" unicode="&#xee;" horiz-adv-x="167" 
d="M46 0v518h75v-518h-75zM-52 585l96 129h80l96 -129h-67l-68 89l-68 -89h-69z" />
    <glyph glyph-name="idieresis" unicode="&#xef;" horiz-adv-x="167" 
d="M46 0v518h75v-518h-75zM-22 591v85h60v-85h-60zM129 591v85h60v-85h-60z" />
    <glyph glyph-name="eth" unicode="&#xf0;" 
d="M112 377v-237q0 -79 44 -79t44 85v242q0 34 -11.5 53.5t-30.5 19.5q-46 0 -46 -84zM195 680l59 34l18 -30l-56 -33q60 -95 60 -312v-169q0 -84 -30.5 -129t-87.5 -45q-55 0 -87.5 39t-32.5 107v220q0 72 29 116.5t76 44.5q29 0 52 -17q-6 66 -27 117l-58 -34l-18 31
l61 35q-18 33 -46 61l30 23q29 -19 58 -59z" />
    <glyph glyph-name="ntilde" unicode="&#xf1;" 
d="M40 0v518h75v-78q34 82 91 82q32 0 51 -24.5t19 -66.5v-431h-75v411q0 48 -30 48q-25 0 -40.5 -37.5t-15.5 -96.5v-325h-75zM155 673l48 -15q13 -4 19 -4q30 0 35 38h46q-3 -44 -21 -68t-47 -24q-24 0 -84 23q-45 16 -64 16q-17 0 -24.5 -8.5t-9.5 -30.5h-43q6 92 65 92
q16 0 80 -19z" />
    <glyph glyph-name="ograve" unicode="&#xf2;" 
d="M114 388v-255q0 -71 42 -71q43 0 43 71v255q0 32 -11.5 50.5t-31.5 18.5q-19 0 -30.5 -18.5t-11.5 -50.5zM38 157v208q0 75 30.5 116.5t87.5 41.5q119 0 119 -161v-205q0 -79 -30 -120t-86 -41q-59 0 -90 41.5t-31 119.5zM44 714h98l62 -129h-50z" />
    <glyph glyph-name="oacute" unicode="&#xf3;" 
d="M114 388v-255q0 -71 42 -71q43 0 43 71v255q0 32 -11.5 50.5t-31.5 18.5q-19 0 -30.5 -18.5t-11.5 -50.5zM38 157v208q0 75 30.5 116.5t87.5 41.5q119 0 119 -161v-205q0 -79 -30 -120t-86 -41q-59 0 -90 41.5t-31 119.5zM109 585l63 129h97l-110 -129h-50z" />
    <glyph glyph-name="ocircumflex" unicode="&#xf4;" 
d="M114 388v-255q0 -71 42 -71q43 0 43 71v255q0 32 -11.5 50.5t-31.5 18.5q-19 0 -30.5 -18.5t-11.5 -50.5zM38 157v208q0 75 30.5 116.5t87.5 41.5q119 0 119 -161v-205q0 -79 -30 -120t-86 -41q-59 0 -90 41.5t-31 119.5zM21 585l96 129h80l96 -129h-67l-68 89l-68 -89
h-69z" />
    <glyph glyph-name="otilde" unicode="&#xf5;" 
d="M114 388v-255q0 -71 42 -71q43 0 43 71v255q0 32 -11.5 50.5t-31.5 18.5q-19 0 -30.5 -18.5t-11.5 -50.5zM38 157v208q0 75 30.5 116.5t87.5 41.5q119 0 119 -161v-205q0 -79 -30 -120t-86 -41q-59 0 -90 41.5t-31 119.5zM155 673l48 -15q13 -4 19 -4q30 0 35 38h46
q-3 -44 -21 -68t-47 -24q-24 0 -84 23q-45 16 -64 16q-17 0 -24.5 -8.5t-9.5 -30.5h-43q6 92 65 92q16 0 80 -19z" />
    <glyph glyph-name="odieresis" unicode="&#xf6;" 
d="M114 388v-255q0 -71 42 -71q43 0 43 71v255q0 32 -11.5 50.5t-31.5 18.5q-19 0 -30.5 -18.5t-11.5 -50.5zM38 157v208q0 75 30.5 116.5t87.5 41.5q119 0 119 -161v-205q0 -79 -30 -120t-86 -41q-59 0 -90 41.5t-31 119.5zM51 591v85h60v-85h-60zM202 591v85h60v-85h-60z
" />
    <glyph glyph-name="divide" unicode="&#xf7;" horiz-adv-x="668" 
d="M291 526q1 16 12.5 27.5t28.5 11.5t29 -12t12 -29t-12 -29t-28 -12q-17 0 -29.5 12.5t-12.5 30.5zM291 122q0 17 12.5 29t29.5 12t29 -12t12 -29t-12 -29t-29 -12t-29.5 12t-12.5 29zM68 292v62h531v-62h-531z" />
    <glyph glyph-name="oslash" unicode="&#xf8;" 
d="M199 326l-84 -199q0 -65 41 -65q43 0 43 71v193zM114 200l84 198q-2 61 -42 61q-19 0 -30.5 -18.5t-11.5 -50.5v-190zM238 491l17 41l27 -11l-25 -59q18 -37 18 -98v-207q0 -79 -30 -120t-86 -41q-53 0 -85 35l-17 -41l-27 12l25 59q-17 39 -17 96v210q0 75 30.5 116.5
t87.5 41.5q53 0 82 -34z" />
    <glyph glyph-name="ugrave" unicode="&#xf9;" 
d="M38 88v430h75v-409q0 -55 33 -55q21 0 36.5 29.5t15.5 69.5v365h75v-518h-75v66q-39 -70 -88 -70q-32 0 -52 25.5t-20 66.5zM44 714h98l62 -129h-50z" />
    <glyph glyph-name="uacute" unicode="&#xfa;" 
d="M38 88v430h75v-409q0 -55 33 -55q21 0 36.5 29.5t15.5 69.5v365h75v-518h-75v66q-39 -70 -88 -70q-32 0 -52 25.5t-20 66.5zM109 585l63 129h97l-110 -129h-50z" />
    <glyph glyph-name="ucircumflex" unicode="&#xfb;" 
d="M38 88v430h75v-409q0 -55 33 -55q21 0 36.5 29.5t15.5 69.5v365h75v-518h-75v66q-39 -70 -88 -70q-32 0 -52 25.5t-20 66.5zM21 585l96 129h80l96 -129h-67l-68 89l-68 -89h-69z" />
    <glyph glyph-name="udieresis" unicode="&#xfc;" 
d="M38 88v430h75v-409q0 -55 33 -55q21 0 36.5 29.5t15.5 69.5v365h75v-518h-75v66q-39 -70 -88 -70q-32 0 -52 25.5t-20 66.5zM51 591v85h60v-85h-60zM202 591v85h60v-85h-60z" />
    <glyph glyph-name="yacute" unicode="&#xfd;" horiz-adv-x="281" 
d="M120 0l-103 518h72l59 -376l38 376h72l-78 -548q-11 -82 -33.5 -116t-90.5 -34h-33v63q38 -2 57.5 7.5t26.5 44.5zM93 585l63 129h97l-110 -129h-50z" />
    <glyph glyph-name="thorn" unicode="&#xfe;" 
d="M46 -180v912h75v-275q17 35 35.5 50t44.5 15q35 0 54.5 -35t19.5 -98v-271q0 -122 -71 -122q-25 0 -43 13t-39 45v-234h-76zM121 349v-174q0 -115 47 -115q31 0 31 51v279q0 67 -32 67q-46 0 -46 -108z" />
    <glyph glyph-name="ydieresis" unicode="&#xff;" horiz-adv-x="281" 
d="M120 0l-103 518h72l59 -376l38 376h72l-78 -548q-11 -82 -33.5 -116t-90.5 -34h-33v63q38 -2 57.5 7.5t26.5 44.5zM35 591v85h60v-85h-60zM186 591v85h60v-85h-60z" />
    <glyph glyph-name="dotlessi" unicode="&#x131;" horiz-adv-x="167" 
d="M46 0v518h75v-518h-75z" />
    <glyph glyph-name="Lslash" unicode="&#x141;" 
d="M56 383v349h83v-272l62 72v-95l-62 -72v-287h153v-78h-236v288l-44 -51v95z" />
    <glyph glyph-name="lslash" unicode="&#x142;" horiz-adv-x="167" 
d="M51 0v323l-45 -55v65l45 55v344h74v-272l45 55v-65l-45 -55v-395h-74z" />
    <glyph glyph-name="OE" unicode="&#x152;" horiz-adv-x="479" 
d="M223 78v575q-56 1 -73 -15.5t-17 -83.5v-351q0 -77 10.5 -101t45.5 -24h34zM467 78v-78h-276q-77 0 -110 41t-33 135v391q0 165 164 165h241v-79h-148v-239h129v-76h-129v-260h162z" />
    <glyph glyph-name="oe" unicode="&#x153;" horiz-adv-x="448" 
d="M269 313h79v77q0 66 -40 66q-21 0 -30 -15.5t-9 -50.5v-77zM42 174v199q0 73 27 111.5t78 38.5q31 0 49 -10.5t35 -37.5q30 48 80 48t78 -44.5t28 -124.5v-102h-148v-122q0 -68 42 -68q17 0 28 16.5t11 41.5v78h67v-51q0 -73 -28 -112t-79 -39q-49 0 -80 44
q-29 -44 -82 -44q-55 0 -80.5 43t-25.5 135zM116 397v-271q0 -65 42 -65q39 0 39 65v270q0 29 -10.5 45.5t-28.5 16.5q-42 0 -42 -61z" />
    <glyph glyph-name="Scaron" unicode="&#x160;" horiz-adv-x="344" 
d="M38 265h79v-84q0 -111 62 -111q53 0 53 100q0 56 -16 86t-60 76l-53 58.5t-34.5 48t-24.5 59.5t-6 72q0 82 34.5 126t98.5 44q62 0 95 -44t33 -127v-85h-77v56q0 69 -11 95.5t-40 26.5q-27 0 -39 -19.5t-12 -62.5q0 -56 15 -87t73 -90l21 -22q50 -53 67.5 -95.5
t17.5 -109.5q0 -75 -31.5 -129t-101.5 -54q-143 0 -143 188v84zM309 928l-96 -129h-81l-95 129h66l69 -89l67 89h70z" />
    <glyph glyph-name="scaron" unicode="&#x161;" horiz-adv-x="281" 
d="M24 193h67v-47q0 -86 52 -86q21 0 33.5 16t12.5 44q0 35 -16 62.5t-59 65.5q-25 22 -39.5 38t-28.5 47t-14 65q0 126 108 126q48 0 75.5 -32t27.5 -89v-48h-61v52q0 27 -11.5 43t-30.5 16q-41 0 -41 -54q0 -29 15 -54t54 -59q53 -47 71.5 -85t18.5 -82q0 -62 -31.5 -99
t-85.5 -37t-85.5 38t-31.5 104v55zM277 714l-96 -129h-81l-95 129h66l69 -89l67 89h70z" />
    <glyph glyph-name="Ydieresis" unicode="&#x178;" horiz-adv-x="344" 
d="M133 309l-114 423h84l71 -303l68 303h83l-109 -421v-311h-83v309zM67 805v85h60v-85h-60zM218 805v85h60v-85h-60z" />
    <glyph glyph-name="Zcaron" unicode="&#x17d;" horiz-adv-x="281" 
d="M38 656v76h215v-74l-144 -579h151v-79h-236v73l145 583h-131zM277 928l-96 -129h-81l-95 129h66l69 -89l67 89h70z" />
    <glyph glyph-name="zcaron" unicode="&#x17e;" horiz-adv-x="240" 
d="M91 66h134v-66h-210v69l132 383h-123v66h200v-62zM257 714l-96 -129h-81l-95 129h66l69 -89l67 89h70z" />
    <glyph glyph-name="florin" unicode="&#x192;" horiz-adv-x="556" 
d="M335 461l-93 -534q-12 -70 -41.5 -98.5t-88.5 -28.5q-43 0 -106 13l17 76q48 -11 75 -11q23 0 36.5 12t17 24.5t7.5 37.5l87 509h-98l11 68h99l11 66q6 34 11.5 52.5t20 43.5t42.5 37t69 12q37 0 101 -19l-17 -74q-50 11 -78 11q-22 0 -35 -12t-17 -25t-9 -41l-10 -51
h100l-12 -68h-100z" />
    <glyph glyph-name="circumflex" unicode="&#x2c6;" horiz-adv-x="333" 
d="M31 585l96 129h80l96 -129h-67l-68 89l-68 -89h-69z" />
    <glyph glyph-name="caron" unicode="&#x2c7;" horiz-adv-x="333" 
d="M303 714l-96 -129h-81l-95 129h66l69 -89l67 89h70z" />
    <glyph glyph-name="breve" unicode="&#x2d8;" horiz-adv-x="333" 
d="M252 704h51q-6 -53 -41 -84t-96 -31q-56 0 -91.5 30.5t-43.5 84.5h52q7 -67 87 -67q37 0 55.5 15.5t26.5 51.5z" />
    <glyph glyph-name="dotaccent" unicode="&#x2d9;" horiz-adv-x="333" 
d="M126 591v94h82v-94h-82z" />
    <glyph glyph-name="ring" unicode="&#x2da;" horiz-adv-x="333" 
d="M254 650q0 -37 -25.5 -62.5t-62.5 -25.5q-36 0 -61.5 25.5t-25.5 62.5t25.5 62.5t61.5 25.5t62 -25.5t26 -62.5zM223 649q0 23 -16.5 39.5t-40.5 16.5q-23 0 -39 -16.5t-16 -39.5t16 -39t39 -16q24 0 40.5 16t16.5 39z" />
    <glyph glyph-name="ogonek" unicode="&#x2db;" horiz-adv-x="333" 
d="M296 -130v-41q-52 -26 -102 -26q-43 0 -68.5 29.5t-25.5 78.5q0 35 20 100h45q-16 -51 -16 -80q0 -37 19.5 -57.5t53.5 -20.5q30 0 74 17z" />
    <glyph glyph-name="tilde" unicode="&#x2dc;" horiz-adv-x="333" 
d="M165 673l48 -15q13 -4 19 -4q30 0 35 38h46q-3 -44 -21 -68t-47 -24q-24 0 -84 23q-45 16 -64 16q-17 0 -24.5 -8.5t-9.5 -30.5h-43q6 92 65 92q16 0 80 -19z" />
    <glyph glyph-name="hungarumlaut" unicode="&#x2dd;" horiz-adv-x="333" 
d="M64 585l63 125h97l-107 -125h-53zM211 585l63 125h95l-108 -125h-50z" />
    <glyph glyph-name="endash" unicode="&#x2013;" horiz-adv-x="500" 
d="M-8 230v46h515v-46h-515z" />
    <glyph glyph-name="emdash" unicode="&#x2014;" horiz-adv-x="1000" 
d="M-7 230v46h1015v-46h-1015z" />
    <glyph glyph-name="quoteleft" unicode="&#x2018;" horiz-adv-x="167" 
d="M43 643l75 93l21 -22l-61 -82h47v-112h-82v123z" />
    <glyph glyph-name="quoteright" unicode="&#x2019;" horiz-adv-x="167" 
d="M43 621v111h81v-124l-74 -93l-20 24l60 82h-47z" />
    <glyph glyph-name="quotesinglbase" unicode="&#x201a;" horiz-adv-x="167" 
d="M43 0v113h81v-129l-79 -122l-27 23l75 115h-50z" />
    <glyph glyph-name="quotedblleft" unicode="&#x201c;" horiz-adv-x="302" 
d="M43 643l76 94l19 -24l-60 -81h47v-112h-82v123zM178 643l76 94l20 -24l-61 -81h47v-112h-82v123z" />
    <glyph glyph-name="quotedblright" unicode="&#x201d;" horiz-adv-x="302" 
d="M43 621v111h81v-124l-75 -93l-19 24l60 82h-47zM178 621v111h81v-124l-75 -93l-19 24l60 82h-47z" />
    <glyph glyph-name="quotedblbase" unicode="&#x201e;" horiz-adv-x="302" 
d="M43 0v113h81v-129l-79 -122l-27 23l74 115h-49zM178 0v113h81v-129l-79 -122l-27 23l75 115h-50z" />
    <glyph glyph-name="dagger" unicode="&#x2020;" horiz-adv-x="375" 
d="M145 639v93h85v-95l-28 -129l85 30h55v-86h-50l-90 32l30 -113v-95l-26 -444h-34l-26 439v101l25 111l-85 -33h-52v87h55l82 -28z" />
    <glyph glyph-name="daggerdbl" unicode="&#x2021;" horiz-adv-x="375" 
d="M149 636v96h86v-82l-32 -142l86 30h55v-87h-51l-88 32l25 -178v-56l-29 -171l84 34h53v-87h-56l-84 29l29 -136v-88h-85v92l29 133l-87 -31h-53v87h58l82 -33l-26 170v66l31 170l-86 -33h-55v87h57l82 -29z" />
    <glyph glyph-name="bullet" unicode="&#x2022;" horiz-adv-x="500" 
d="M371 349q0 -50 -35.5 -86t-85.5 -36t-86 36.5t-36 87.5q0 50 35.5 85.5t86.5 35.5q50 0 85.5 -36t35.5 -87z" />
    <glyph glyph-name="ellipsis" unicode="&#x2026;" horiz-adv-x="615" 
d="M473 0v111h80v-111h-80zM268 0v111h80v-111h-80zM63 0v110h80v-110h-80z" />
    <glyph glyph-name="perthousand" unicode="&#x2030;" horiz-adv-x="854" 
d="M412 224v-118q0 -83 44 -83q39 0 39 83v118q0 42 -9.5 60t-32.5 18q-41 0 -41 -78zM346 97v133q0 58 28 89.5t80 31.5q50 0 78.5 -32t28.5 -89v-133q0 -60 -27 -92.5t-78 -32.5q-53 0 -81.5 32.5t-28.5 92.5zM103 613v-118q0 -83 44 -83q39 0 39 83v118q0 42 -9.5 60
t-32.5 18q-41 0 -41 -78zM37 486v133q0 58 28 89.5t80 31.5q50 0 78.5 -32t28.5 -89v-133q0 -60 -27 -92.5t-78 -32.5q-53 0 -81.5 32.5t-28.5 92.5zM669 224v-118q0 -83 44 -83q39 0 39 83v118q0 42 -9.5 60t-32.5 18q-41 0 -41 -78zM603 97v133q0 58 28 89.5t80 31.5
q50 0 78.5 -32t28.5 -89v-133q0 -60 -27 -92.5t-78 -32.5q-53 0 -81.5 32.5t-28.5 92.5zM97 -27l371 769h35l-371 -769h-35z" />
    <glyph glyph-name="guilsinglleft" unicode="&#x2039;" horiz-adv-x="177" 
d="M16 277l85 201h57l-70 -200l73 -199h-58z" />
    <glyph glyph-name="guilsinglright" unicode="&#x203a;" horiz-adv-x="177" 
d="M88 276l-72 202h58l87 -200l-85 -199h-58z" />
    <glyph glyph-name="fraction" unicode="&#x2044;" horiz-adv-x="94" 
d="M-154 -28l371 768h34l-370 -768h-35z" />
    <glyph glyph-name="fraction" unicode="&#x2215;" horiz-adv-x="94" 
d="M-154 -28l371 768h34l-370 -768h-35z" />
    <glyph glyph-name="Euro" unicode="&#x20ac;" 
d="M286 719v-79q-19 22 -63 22q-75 0 -81 -188h120l-14 -67h-109v-39v-37h93l-14 -67h-76q6 -192 80 -192q45 0 64 22v-81q-18 -18 -79 -18q-63 0 -98.5 63.5t-42.5 205.5h-50l14 67h31q-1 9 -1 37q0 26 1 39h-45l14 67h35q13 266 143 266q57 0 78 -21z" />
    <glyph glyph-name="trademark" unicode="&#x2122;" horiz-adv-x="940" 
d="M95 689v43h310v-43h-130v-356h-50v356h-130zM451 333v399h74l100 -319l104 319h76v-399h-45v356l-118 -356h-34l-112 356v-356h-45z" />
    <glyph glyph-name="minus" unicode="&#x2212;" horiz-adv-x="667" 
d="M68 292v64h531v-64h-531z" />
    <glyph glyph-name="fi" unicode="&#xfb01;" 
d="M17 462v56h29v91q0 25 3.5 42.5t15 38t40.5 31.5t74 11h100v-109h-76v49h-24q-58 0 -58 -52v-102h159v-518h-75v462h-84v-462h-75v462h-29z" />
    <glyph glyph-name="fl" unicode="&#xfb02;" 
d="M279 732v-732h-74v462h-80v-462h-75v462h-26v56h26v91q0 68 35 95.5t120 27.5h74zM205 670h-22q-31 0 -44.5 -12.5t-13.5 -39.5v-100h80v152z" />
    </font>
</defs>
</svg>
